<?xml version="1.0" encoding="iso-8859-1"?>
<svg version="1.1" id="Capa_1" xmlns="http://www.w3.org/2000/svg" xmlns:xlink="http://www.w3.org/1999/xlink" height="25px" width="25px"
	 viewBox="0 0 191.503 191.503" style="enable-background:new 0 0 191.503 191.503;" xml:space="preserve">
<path style="fill:#000001;" d="M168.197,181.189L109.398,35.892l10.601-25.514c0.962-2.314,0.704-4.956-0.688-7.041
	C117.92,1.252,115.579,0,113.073,0h-9.482c-3.03,0-5.764,1.824-6.926,4.623L72.38,63.073h-3.559c-4.143,0-7.5,3.358-7.5,7.5
	c0,3.267,2.092,6.038,5.007,7.067L55.63,103.388h-3.996c-4.143,0-7.5,3.358-7.5,7.5c0,3.409,2.276,6.282,5.391,7.194l-10.645,25.621
	h-3.682c-4.143,0-7.5,3.358-7.5,7.5c0,3.307,2.143,6.108,5.114,7.106l-9.48,22.818c-0.962,2.314-0.704,4.956,0.688,7.041
	c1.392,2.084,3.732,3.336,6.238,3.336h9.482c3.03,0,5.764-1.824,6.926-4.623L96.407,67.16l48.403,119.655
	c1.146,2.833,3.897,4.688,6.953,4.688h9.482c2.494,0,4.825-1.24,6.219-3.308C168.858,186.127,169.133,183.501,168.197,181.189z"/>
<g>
</g>
<g>
</g>
<g>
</g>
<g>
</g>
<g>
</g>
<g>
</g>
<g>
</g>
<g>
</g>
<g>
</g>
<g>
</g>
<g>
</g>
<g>
</g>
<g>
</g>
<g>
</g>
<g>
</g>
</svg>
