<svg clip-rule="evenodd" fill-rule="evenodd" stroke-linejoin="round" stroke-miterlimit="1.414" viewBox="0 0 100 100" xmlns="http://www.w3.org/2000/svg"><path d="m30.848 82.045-.591 2.835-3.567-.001c-.512.003-1.065.031-1.338.187-.302.172-.385.397-.407.709-.098 1.368 5.496.647 5.224 4.479-.102 1.423-.693 2.753-1.63 3.472-1.101.845-2.675 1.141-4.325 1.157h-4.321l.595-2.81 3.543-.002c.43 0 1.391 0 1.788-.247.293-.182.547-.566.569-.868.021-.297-.218-.505-.603-.684-1.407-.654-4.767-.95-4.55-4.029.098-1.38.605-2.479 1.519-3.143 1.015-.738 2.493-1.028 3.949-1.055zm20.853 1.332c-.687-.746-1.658-1.307-3.161-1.4-4.701-.29-7.364 3.075-8.016 6.983-.49 2.936.605 5.296 4.14 5.514 1.848.115 3.443-.239 4.663-1.066 1.882-1.276 2.958-3.545 3.353-5.916.281-1.689-.051-3.105-.979-4.115zm-10.056-1.332-.602 2.834h-3.893l.58 2.602-1.418 6.752h-3.597l1.962-9.354h-3.243l.601-2.834zm18.711 0c2.648 0 3.997 1.338 3.84 3.578-.116 1.672-.934 2.979-2.659 3.798l1.01 4.812h-3.619l-1.403-6.797h1.325c1.161 0 2.031-.29 2.145-1.459.091-.944-.557-1.287-1.539-1.287h-2.503l.54 2.749-1.47 6.794h-3.58l2.565-12.188zm11.865 5.516h.036l3.112-5.517h4.626l-2.566 12.189h-3.595l1.262-6.074.267-.969h-.037l-4.138 6.499h-1.065l-1.338-6.499h-.037l-.151 1.073-1.226 5.97h-3.58l2.564-12.189h4.714zm-23.166-.076c-.432 2.594-1.587 4.197-3.49 4.079-1.22-.075-1.686-.977-1.416-2.598.435-2.611 1.588-4.196 3.49-4.079 1.22.075 1.689.96 1.416 2.598zm17.907-8.464c-.163.77.053 1.392.93 1.392.876 0 1.358-.622 1.521-1.392.163-.766-.055-1.385-.931-1.385-.877 0-1.357.619-1.52 1.385zm4.006-1.344-.365 1.717c-.05.234-.04.508.38.508.412 0 .538-.274.588-.508l.365-1.717h.623l-.365 1.717c-.15.703-.658 1.019-1.324 1.019-.67 0-1.039-.316-.89-1.019l.365-1.717zm-8.928 0h.622l-.464 2.185h1.19l-.109.512h-1.812zm16.999 0h1.86l-.109.512h-1.238l-.113.535h1.055l-.109.512h-1.055l-.133.626h1.258l-.11.512h-1.88zm-4.576 0c.574 0 .875.341.761.872a1.014 1.014 0 0 1 -.681.786l.221 1.039h-.625l-.308-1.463h.309c.218 0 .408-.112.462-.362.054-.254-.091-.36-.284-.36h-.512l-.465 2.185h-.623l.574-2.697zm-14.99 0h1.861l-.11.512h-1.237l-.113.535h1.054l-.108.512h-1.056l-.132.626h1.257l-.109.512h-1.88zm17.872 1.682h.008l.13-.667.215-1.015h.567l-.573 2.697h-.606l-.742-1.619h-.009l-.112.604-.216 1.015h-.568l.574-2.697h.567zm-11.643-1.682c.579 0 .836.261.743.701a.823.823 0 0 1 -.547.595l-.002.009c.271.087.453.292.379.643-.099.463-.488.749-1.067.749h-1.238l.573-2.697zm-8.675 1.467h.007l.846-1.467h.862l-.573 2.697h-.622l.292-1.401.1-.392h-.008l-1.042 1.675h-.24l-.36-1.675h-.008l-.073.392-.292 1.401h-.567l.573-2.697h.806zm11.763-.123c-.111.528-.357.881-.79.881-.431 0-.527-.353-.416-.881.114-.531.357-.872.789-.872.433 0 .531.341.417.872zm-3.438.226h-.52l-.13.615h.544c.213 0 .373-.079.421-.305.047-.219-.077-.31-.315-.31zm.197-1.058h-.491l-.117.547h.491c.215 0 .346-.075.388-.274.039-.183-.056-.273-.271-.273zm-25.895-24.613-10.5-8.729-1.996 1.628c3.056 5.388 9.297 9.589 9.297 9.589l-.013 4.691-9.649 15.679 12.827-15.172zm4.873 22.858h-14.16l12.659-14.386v-12.3l11.037 1.652c-1.753 11.516-12.873 21.46-12.873 21.46s18.135-2.27 25.314-10.853l4.849 4.463c-10.127 9.499-22.565 9.964-26.826 9.964zm16.5-.609c7.018-1.077 11.329-3.873 14.082-5.895l-1.81-1.685c-1.801 1.567-5.632 4.903-12.272 7.58zm8.88-35.546.373 6.33.723.847-2.09 1.272-3.069-4.948s-3.531 3.316-5.782 8.505l-3.083-.463s-.661 5.252-4.532 11.647c.047-.033.092-.068.137-.102 4.723-3.48 6.427-8.273 6.427-8.273s4.218 3.864 4.601 4.177c.135.109.435.33.817.521.412.206.81.219 1.302.206.358-.009.778-.027 1.065-.322.689-.796 1.238-1.596 1.238-1.596l-1.456-1.683.268-.766 1.902 1.192.739-.735-2.98-1.854-1.717.481.44-1.026 1.268-.734 2.483 1.827.781.543.528-1.377-1.126-1.038-.043-.732 2.078.969.765-.271.279-4.549 1.629.12.992-6.847s-6.447-5.813-11.586-8.233c1.702 1.932 6.629 6.912 6.629 6.912zm-35.97-8.623-27.649 29.122 26.448-21.454.854 2.951 9.294-10.017.05.158s.681.092.624-.232c-.059-.33-.512-2.516-.645-3.254-.028-.155-.075-.255-.242-.34-1.018-.483-5.545-2.475-5.12-3.023.453-.584 3.475-3.439 3.475-3.439s-2.95 1.43-5.613 3.391c-6.135 4.521-9.483 8.588-10.704 10.753-.841 1.489-1.504 3.88-1.504 3.88l12.406-13.006s2.758.568 6.142 1.971l-6.848 6.147zm.399 26.952c-4.935-2.963-9.78-10.024-9.78-10.024 2.924 6.857 8.539 10.318 9.772 11.078zm19.878-8.991c1.549-11.719 7.097-17.017 7.097-17.017-5.698 3.454-7.428 12.572-7.969 15.833l-9.797-1.587c-1.465-2.158-3.036-4.521-5.517-6.438l-.602.644c2.314 2.054 4.381 4.915 5.564 6.769.504.085 11.024 1.766 11.224 1.796zm15.106-8.861c-1.351.996-2.978 2.535-2.978 2.535l2.721 2.369zm-25.011-13.57a.594.594 0 0 1 .181.373c.11.878.508 4.05.525 4.177.02.148.86-.282.83-.64-.024-.306-.244-3.001-.307-3.759a.369.369 0 0 0 -.179-.303c-.085-.053-3.588-2.341-3.588-2.341s2.455 2.401 2.538 2.493zm2.656-1.308c.051.735.278 4.08.293 4.252.016.194.879-.324.865-.652-.014-.293-.175-3.301-.211-3.973a.245.245 0 0 0 -.124-.198c-.074-.045-3.565-2.02-3.565-2.02l2.641 2.366a.35.35 0 0 1 .101.225zm2.29-1.27.096 4.02c.007.23.846-.294.848-.635.002-.271-.014-2.641-.021-3.601l16.902-18.091-18.608 16.79-2.293-1.212s2.901 2.416 2.954 2.469c.055.051.12.157.122.26z" fill="#fff" fill-rule="nonzero"/></svg>