<svg clip-rule="evenodd" fill-rule="evenodd" stroke-linejoin="round" stroke-miterlimit="1.414" viewBox="0 0 100 100" xmlns="http://www.w3.org/2000/svg"><path d="m51.382 88.705h-.273v-10.938h8.746c1.535 0 2.555.427 2.555 1.22v1.093c0 .738-.874 1.166-2.428 1.219l2.685 2.271h-3.405l-4.013-3.51h4.367v-1.073h-5.698v8.371c0 .573-.223.901-.72 1.105-.481.185-1.144.242-1.816.242zm-10.205-10.938h8.804v10.938h-.277c-.666 0-1.37-.057-1.851-.242-.496-.204-.72-.532-.72-1.105v-6.077h-5.675v.907c0 .557-.242.828-.758 1.054-.462.201-1.185.312-1.886.312h-.166v-4.509c0-.889 1.182-1.278 2.529-1.278zm-14.307 7.731c.197-.029.392-.042.86-.042.541 0 .968.022 1.178.063.37.071.446.227.446.953 0 .743-.032.904-.172 1.032-.159.143-.452.188-1.217.188-.541 0-.891-.022-1.146-.073-.386-.083-.452-.22-.452-.927v-.115c.006-.85.085-1.013.503-1.079zm32.915-.013v1.198c.006.416.06.449.764.449.446 0 .577-.023.65-.099.061-.067.083-.23.083-.548v-1h.662v1l-.006.261c-.016.825-.162.946-1.175.946-.832 0-.972-.003-1.204-.073-.335-.092-.424-.271-.43-.857l-.007-.277v-1zm-25.567 0v1.204c.006.41.067.443.768.443.445 0 .579-.017.649-.096.058-.064.083-.233.083-.551v-1h.663v1l-.007.261c-.016.825-.162.946-1.178.946-.828 0-.969-.003-1.204-.067-.331-.092-.421-.277-.43-.863l-.003-.277v-1zm22.961.456c-.554 0-.598.018-.598.162 0 .105.035.152.127.162.099.013.242.019.666.035.796.022.92.048 1.06.179.102.092.14.226.14.461 0 .268-.044.446-.133.545-.159.175-.287.204-1.223.204-1.144 0-1.3-.089-1.3-.65v-.101h.644c.003.222.028.242.382.248h.28l.338-.006c.312 0 .359-.023.359-.191 0-.125-.05-.151-.305-.163a15.005 15.005 0 0 1 -.474-.016 8.307 8.307 0 0 0 -.523-.019c-.529-.016-.685-.156-.685-.631 0-.455.14-.634.522-.675.195-.016.481-.029.838-.029 1.032 0 1.198.086 1.198.612v.101h-.638c-.006-.197-.034-.222-.343-.222l-.293-.006zm-34.654.324h-.656c-.003-.016-.003-.028-.003-.041-.003-.15-.035-.179-.162-.195a6.786 6.786 0 0 0 -.552-.019c-.426 0-.557.019-.618.074-.067.067-.088.187-.088.452 0 .347.015.465.082.516.064.051.246.077.621.077.003 0 .109-.004.313-.007.356-.007.42-.035.432-.191l.004-.077v-.038h.662c.007.102.007.138.007.217 0 .551-.182.643-1.271.643-.618 0-.841-.012-1.058-.057-.34-.067-.433-.22-.439-.71l-.01-.332v-.086c0-.71.074-.878.421-.958.22-.048.512-.061 1.131-.061 1.031 0 1.184.089 1.184.679zm1.287 1.395h-.669v-2.175h1.593l.382.006c.586 0 .726.128.726.669 0 .465-.077.609-.35.65l-.058.01.058.006c.232.022.325.149.325.458v.376h-.65v-.124c0-.376-.038-.427-.28-.427h-1.077zm13.858-.557h1.558v.557h-2.242v-2.175h.684zm-7.061.557h-.675v-2.175h1.159l1.134 1.618h.077l-.026-1.618h.675v2.175h-1.146l-1.141-1.621h-.076zm14.773 0h-.749l-.188-.369h-1.43l-.188.369h-.751l1.146-2.175h1.029zm-5.03-.557h1.558v.557h-2.242v-2.175h.684zm32.3.551h-.668v-2.169h1.975c.586 0 .726.134.726.672 0 .468-.077.605-.351.646l-.057.013.057.004c.233.025.325.155.325.458v.376h-.649v-.118c0-.376-.039-.427-.284-.433h-1.074zm8.32 0h-.751l-.185-.366h-1.433l-.188.366h-.755l1.153-2.169h1.025zm-15.989-1.615h-.971v1.615h-.685v-1.615h-.968v-.554h2.624zm21.576 1.615h-1.567v-2.169h1.567c.586 0 .621 0 .812.041.105.02.203.067.284.137.152.156.21.376.21.835 0 .576-.054.815-.204.968-.159.159-.353.188-1.102.188zm-15.193-1.656h-1.755v.315h1.666v.472h-1.666v.343h1.774v.526h-2.421v-2.169h2.402zm10.645 1.656h-.675v-2.169h1.159l1.134 1.618h.07l-.019-1.618h.675v2.169h-1.147l-1.14-1.615h-.08zm-15.888 0h-.694v-2.169h.694v.777h1.51v-.777h.691v2.169h-.691v-.774h-1.51zm9.817-.555h1.554v.555h-2.236v-2.169h.682zm-48.917-.474c0 .468.038.497.726.497h.102l.376-.007c.426-.006.461-.051.461-.636 0-.23-.019-.322-.083-.376-.06-.058-.315-.086-.757-.086-.258 0-.465.006-.577.022-.201.026-.236.112-.248.532zm59.536-.596h-.917v1.074h.923c.618 0 .65-.029.65-.57 0-.239-.032-.364-.108-.437-.057-.057-.169-.067-.548-.067zm-7.173-.035h-.131l-.417.822h.969zm-35.584.004h-.134l-.42.818h.971zm-19.073.047h-.917v.51h.917l.153-.006c.268 0 .303-.032.303-.249 0-.105-.016-.172-.048-.207-.038-.042-.098-.048-.408-.048zm48.841 0h-.918v.504h1.071c.264-.007.299-.035.299-.249 0-.105-.012-.178-.045-.206-.041-.042-.101-.049-.407-.049zm16.716-2.475h-10.368c-2.335 0-4.609-.703-4.609-2.073h14.811v-1.892h-10.396c-2.335 0-4.415-.704-4.415-2.108v-1.66c0-1.637 2.08-2.309 4.447-2.309h10.587c2.752 0 4.605.637 4.605 2.112h-14.683v1.857h10.046c2.338 0 4.637.605 4.637 1.98v1.985c0 1.44-1.885 2.108-4.662 2.108zm-69.901 0h-10.365c-2.338 0-4.608-.703-4.608-2.073h14.813v-1.892h-10.402c-2.331 0-4.411-.704-4.411-2.108v-1.66c0-1.637 2.08-2.309 4.449-2.309h10.587c2.752 0 4.606.643 4.606 2.112h-14.683v1.857h10.046c2.337 0 4.637.605 4.637 1.981v1.984c0 1.44-1.886 2.108-4.669 2.108zm43.445-.016h-.255v-5.787h2.806v2.555l3.66-2.555h3.112l-3.835 2.717 5.106 3.07h-2.144c-1.385 0-1.793-.311-2.347-.573l-3.552-2.092v1.554c0 .834-1.201 1.111-2.551 1.111zm-34.801 0h-.312c-1.35 0-2.497-.48-2.497-1.203v-3.399c0-.688 1.147-1.185 2.517-1.185h.292v2.313h5.702v-2.313h.236c1.535 0 2.551.427 2.551 1.22v3.364c0 .834-1.144 1.203-2.551 1.203h-.259v-2.273h-5.679zm18.104-4.567h-5.675v1.073h5.675zm-20.913-4.568h15.372c-6.142-3.335-11.413-7.66-15.468-12.759-2.697-3.389-4.784-7.029-6.246-10.823-1.388-.191-2.79-.372-4.179-.459-2.309-.149-4.181-.143-6.366-.143-1.176 0-3.883.13-4.364.13-.026 0-4.969.45-4.969.45v-.21s9.995-4.682 17.703-8.266a36.627 36.627 0 0 1 -.302-4.669v-.803l.455-.662c.261-.383 4.65-6.562 14.429-10.575a49.525 49.525 0 0 0 -.615-5.093l-.902-4.908 4.527 2.099c2.22 1.032 4.513 2.774 6.838 5.169.37-.061.739-.115 1.111-.162.342-.147.691-.284 1.042-.424a58.122 58.122 0 0 1 3.446-1.188 63.305 63.305 0 0 1 3.829-1.045c.503-.121 1.026-.235 1.548-.35-.255-1.048-.522-2.112-.522-2.112l-1.173-4.481s3.899 1.987 6.855 1.987l.36.022c1.353.058 3.048 0 5.042-.168a87.114 87.114 0 0 0 4.294-.481c1.684-.23 12.612-1.813 14.511-2.147l-14.636 10.374-.685.405-.796-.048c-2.083-.137-4.402-.08-5.733.114 15.562 3.067 22.28 12.534 22.608 13.012l.455.662v.803c0 4.242-.748 8.431-2.201 12.447l.032.019 2.806 1.437c1.653.857 3.252 1.71 4.756 2.529l3.503 1.949-.019-.006.019.013c1.905 1.085 2.848 1.678 2.889 1.707l4.526 2.854-5.055 1.761c-.069.025-1.882.656-5.054 1.357a79.375 79.375 0 0 1 -5.829 1.064c-1.956.282-.79.108-.796.114a91.39 91.39 0 0 1 -6.89.666c-1.233.067-2.481.105-3.72.127-.354.22-2.357 1.501-4.491 2.867a53.24 53.24 0 0 1 -8.673 5.844h14.932v1.256h-48.204v-1.256 1.256z" fill="#fefefe"/><path d="m56.034 71.816a46.612 46.612 0 0 0 6.13-3.967c1.284-.414 2.469-.799 2.682-.876-.226.474-.456.962-.672 1.453a52.135 52.135 0 0 1 -5.277 3.39h-.001a55.703 55.703 0 0 1 -7.224 3.39l-.563.214-.562.265-.566-.265-.56-.214a55.88 55.88 0 0 1 -7.232-3.39c-5.569-3.122-10.346-7.11-14.045-11.765-2.198-2.758-3.963-5.681-5.288-8.727.867.179 1.727.386 2.58.621.587.16 1.176.341 1.765.535 1.389 3.323 3.134 6.438 5.109 8.913 3.365 4.233 7.7 7.68 12.744 10.423h.001a56.397 56.397 0 0 0 5.493 2.603 56.615 56.615 0 0 0 5.486-2.603zm13.134-13.596c4.931 1.15 14.219 2.752 24.927 1.73 0 0-1.701.589-4.765 1.27-1.866.41-3.747.751-5.638 1.023-.248.041-.509.073-.77.111-2.22.305-4.452.52-6.689.647-1.398.08-2.854.134-4.354.143l-3.211 2.048.978-2.064c-.322-.006-.643-.013-.969-.022l-6.108 2.22v-2.637c-.542-.064-1.09-.131-1.634-.201l-3.724 1.376.65-1.844c-.032-.006-.064-.013-.102-.019a63.997 63.997 0 0 1 -2.293-.452l-2.835.863 1.223-1.229c-.312-.074-.624-.147-.936-.227a57.245 57.245 0 0 1 -4.708-1.433 47.253 47.253 0 0 1 -4.465-1.822 41.59 41.59 0 0 1 -4.112-2.214 62.688 62.688 0 0 0 -3.749-2.134 53.735 53.735 0 0 0 -3.475-1.665 50.175 50.175 0 0 0 -3.249-1.278 43.146 43.146 0 0 0 -8.581-2.089 42.32 42.32 0 0 0 -4.838-.36 39.26 39.26 0 0 0 -7.262.548 30.66 30.66 0 0 0 -2.243.465v-.006c9.875-2.676 20.678-.59 23.402.015.194.051.395.096.595.144l.058.009s.273.064.414.093c.172.035.344.069.519.108.818.163 1.621.325 2.417.487a8.933 8.933 0 0 1 -1.344-2.768s3.211 3.144 9.709 4.52c1.745.382 3.446.758 5.096 1.131 1.669.379 4.032.93 4.434 1.026l3.184.757s2.835.701 3.256.8l2.93.739c1.395.36 2.736.704 4.013 1.042 1.293.34 2.52.675 3.679.99zm-2.63.608c-2.743-.321-1.173-.019-2.912-1.226l6.883 1.207s-1.219.341-3.971.019zm10.686-21.158c-.009-.011-7.599-9.385-22.274-11.011l.166-.134c.5-.395 1.038-.796 1.599-1.188l.175-.124c17.107 2.143 24.222 12.457 24.222 12.457 0 3.866-.668 7.651-1.949 11.294l-.707-.353-2.742-1.338c.962-3.357 1.512-6.695 1.512-9.603zm-53.358 0c.002.599.025 1.198.067 1.796-1.032.472-2.319 1.064-3.762 1.73a33.33 33.33 0 0 1 -.194-3.526s3.765-5.45 12.377-9.25a24.34 24.34 0 0 1 -.063 1.226l-.357.332a26.715 26.715 0 0 0 -2.44 2.799c-3.717 2.539-5.618 4.881-5.628 4.893zm10.897-6.813c-.357.318-.695.637-1.013.952a23.253 23.253 0 0 0 -2.593 3.055 20.144 20.144 0 0 0 -1.624 2.726c-.775 1.58-1 2.622-1.02 2.72 3.934-1.682 5.628-5.494 6.25-9.453zm12.953 3.707c-1.372-2.252-3.475-5.43-5.991-8.319.188-.09.369-.182.564-.274.911-.43 1.882-.851 2.921-1.252a55.303 55.303 0 0 1 3.283-1.134c1.15-.35 2.374-.688 3.673-1a72.479 72.479 0 0 1 4.096-.863l-1.172-4.727s.401.535 3.019.701c1.313.083 3.173.073 5.779-.15a92.598 92.598 0 0 0 4.427-.497 128.44 128.44 0 0 0 5.497-.866l-7.288 4.319s-6.287-.411-8.134.681a51.955 51.955 0 0 0 -3.163 2.042c-.582.411-1.154.838-1.714 1.278-.576.458-1.146.936-1.688 1.436a22.274 22.274 0 0 0 -1.563 1.586c-.483.54-.926 1.113-1.326 1.717a9.907 9.907 0 0 0 -.949 1.828 6.435 6.435 0 0 0 -.424 1.921 5.243 5.243 0 0 0 .153 1.573z" fill="#221f20"/><path d="m52.956 68.199s.713-2.042 1.252-3.573c-.341.104-8.948 1.503-8.948 1.503s1.593-1.589 3.663-3.66c-.525-.168-1.057-.331-1.566-.513a51.535 51.535 0 0 1 -4.708-1.92 45.03 45.03 0 0 1 -4.367-2.348 58.54 58.54 0 0 0 -3.596-2.051 53.334 53.334 0 0 0 -3.217-1.545c1 2.055 2.16 3.959 3.427 5.555 3.893 4.893 9.288 8.552 15.652 11.177 3.449-1.424 6.615-3.16 9.415-5.227zm-22.672-19.062s-.452-.102-.646-.154c-2.679-.598-13.196-2.627-22.939-.134-.153.036-.307.077-.463.119v-.068l15.018-5.787 7.253-2.796.006-.007c3.934-1.682 5.629-5.494 6.25-9.453.611-4.459-.555-10.788-.555-10.788 7.358 3.414 13.958 15.148 15.072 17.206.519.548 1.16 1.089 1.95 1.615.958.64 2.127 1.255 3.532 1.84 1.424.59 2.819 1.179 4.176 1.759 1.382.589 2.723 1.178 4.032 1.755 1.331.586 2.621 1.165 3.873 1.733a333.385 333.385 0 0 1 7.195 3.35c1.141.548 2.233 1.083 3.281 1.596 1.949.959 3.889 1.938 5.819 2.936 1.784.928 3.351 1.765 4.711 2.504 1.379.752 2.529 1.402 3.453 1.933a75.302 75.302 0 0 1 2.793 1.654c-10.708 1.022-19.996-.58-24.927-1.73l-.57-.159c-1.159-.315-2.386-.65-3.679-.991-1.277-.337-2.618-.681-4.013-1.041l-1.188-.303c.503 1.252 1.214 2.21 2.035 2.714l-1.806-.15c-.818-.602-1.506-1.659-1.971-3 .592.15 1.166.293 1.742.436a10.39 10.39 0 0 1 -.5-1.656l-1.701-.615c.108.653.264 1.274.459 1.835l-1.558-.382a11.803 11.803 0 0 1 -.411-1.994l-1.643-.587c.057.765.181 1.491.357 2.163l-.058-.009c-.204-.054-.407-.099-.618-.153l-.847-.201a12.549 12.549 0 0 1 -.296-2.325l-1.596-.573v.035c0 .863.083 1.691.229 2.468l-1.041-.245-1.66-.382c-.178-.042-.36-.083-.547-.124-.392-.093-.791-.185-1.185-.274-1.65-.373-3.351-.749-5.096-1.131-6.498-1.376-9.709-4.52-9.709-4.52.306 1.083.797 2 1.344 2.768-.006-.003-.019-.003-.025-.003-.79-.162-1.586-.325-2.392-.484-.175-.039-.347-.073-.52-.108-.14-.029-.28-.064-.42-.092zm26.316 8.87 1.742.146c-.819-.678-1.494-1.825-1.924-3.245-.564-.141-1.124-.277-1.697-.418.395 1.52 1.057 2.752 1.879 3.517zm-1.574-.134c-.825-.831-1.471-2.153-1.828-3.746 0 0-1.516-.363-1.662-.394.321 1.678.949 3.089 1.77 3.997zm-3.198-28.214c-.273.338-.522.669-.732.994a7.135 7.135 0 0 0 -.695 1.334 3.53 3.53 0 0 0 -.261 1.141c-.006.054-.006.102-.006.153 0 .082.019.159.026.242.466.76.916 1.53 1.35 2.309.334.309.707.615 1.15.911.844.564 1.882 1.102 3.092 1.602l4.198 1.774 4.062 1.762 3.898 1.745 3.724 1.71.961.456c.542-2.281.841-4.511.841-6.504 0 0-7.377-9.116-21.608-9.629z" fill="#008bc0"/></svg>