<svg clip-rule="evenodd" fill-rule="evenodd" stroke-linejoin="round" stroke-miterlimit="1.414" viewBox="0 0 100 100" xmlns="http://www.w3.org/2000/svg"><path d="m15.51 64.776c-1.127.116 4.445-1.222 4.476-1.232 3.898-.959 1.127-.959-.505-1.327a23.34 23.34 0 0 1 -3.16-.927 3.45 3.45 0 0 0 -2.191 0c-.611.411-2.896.463-4.94 1.285-1.769.695-4.529 2.201-4.055 3.644s3.402.874 5.625-.537a22.71 22.71 0 0 1 4.75-.906zm62.543 3.897c-1.464-.431-3.981-.979-6.225-1.79a16.203 16.203 0 0 1 -4.834-3.076c-1.054-.811-2.812-1.053-4.024-1.485-1.211-.432-1.053-.611-1.832 0a21.459 21.459 0 0 1 -2.286 1.517c2.602.716 3.434.39 5.266.674 1.327.2 3.918 3.739 7.373 5.266 3.455 1.528 2.918 1.496 6.878 1.496 3.244-.053 1.822-1.938-.316-2.56zm14.051 0c-1.422-1.053-3.36-6.404-4.329-7.689-.969-1.284-2.486-.452-4.887-3.233-1.896-2.18-2.676-5.435-3.708-7.373-1.432-2.675-3.676-3.086-2.96-3.792 3.002 1.78 4.213 1.327 6.057-.263.779-.653 1.537-4.887-1.054-6.098-3.907-1.78-5.929 2.433-6.024 2.433-4.993-4.213-15.926-3.339-20.981-1.643-1.233.41-.095.558.916.674.674.063 1.717 1.148-2.033.611-1.464-.211-8.257-1.591-12.123-1.591-3.328 0-5.803.263-7.436 1.053s-5.266 1.981-6.625 2.454c-.853.274-1.117-.463-.2-.768 14.335-4.845 14.588-8.5 20.728-11.786-2.033 0-9.732.505-11.354.505a16.455 16.455 0 0 0 -10.796 5.74c-.432.569-1.117.085-.6-.61 2.622-3.634 7.709-5.909 12.723-6.204.611-.2 5.098-4.35 7.647-5.888-8.553.263-10.596.263-15.083 2.107-4.487 1.843-7.278 6.319-9.479 8.552-2.202 2.233-5.035 1.538-8.753 5.266-1.664 1.644-2.928 5.088-4.213 6.562-1.285 1.475-4.213 4.824-3.613 6.509.411 1.222.411.769 1.422.969-.316.401 0 1.507.2 2.044a2.913 2.913 0 0 0 2.591 1.696c1.275 1.748 4.793 1.053 7.183 1.379 1.928.264 4.214 1.443 8.553 1.443a6.183 6.183 0 0 0 5.488-3.781c.505-1.232.716-1.127-.158 1.18a5.397 5.397 0 0 1 -5.762 3.328c-.442 1.19-3.391 1.517-6.161 2.56a23.453 23.453 0 0 0 -6.784 4.455c-.979 1.19-2.106 1.833-1.464 3.16.443.863 4.793-.748 6.215-1.643 1.622-1.054 2.106-.359 3.56-.969 1.453-.611 2.233-1.285 4.676-2.307 4.687 0 7.036-.411 11.312-.411 3.518 0 5.098-1.274 6.573-3.792 1.59-2.717 1.464-.632.916.674 5.509 1.559 16.326-1.274 16.958-1.685 1.158-.779 2.412-.621.2-2.106-1.222-.822-1.359-2.318 0-1.18a17.188 17.188 0 0 0 4.076 2.507c.811.411 3.971 1.127 4.476 1.685 2.444 2.581 7.805 4.076 10.87 4.529s3.876.2 5.266 1.833c1.391 1.632 6.32 4.213 8.153 4.718 2.243.622 7.025.622 6.825-1.643-.105-1.474-4.445-2.285-7.004-4.129zm-74.266-23.961c.052.126.084.168.126.284a2.113 2.113 0 0 1 -.632 2.507 1.667 1.667 0 0 1 -2.559-.632c-.506.179-.79.6-1.18 1.211-.168.274-.326.242-.432.168-.105-.073-.179-.379 0-.895a6.648 6.648 0 0 1 4.456-3.465c.252-.063.547-.063.642.126.263.548-.484.59-.421.696zm-1.117.442a.581.581 0 0 0 -.579.579c0 .318.261.579.579.579s.58-.261.58-.579a.582.582 0 0 0 -.58-.579z" fill="#fff"/></svg>