<?xml version="1.0" encoding="iso-8859-1"?>
<!-- Generator: Adobe Illustrator 19.0.0, SVG Export Plug-In . SVG Version: 6.00 Build 0)  -->
<svg version="1.1" id="Layer_1" xmlns="http://www.w3.org/2000/svg" xmlns:xlink="http://www.w3.org/1999/xlink" width="25px" height="25px"
	 viewBox="0 0 511.999 511.999" style="enable-background:new 0 0 511.999 511.999;" xml:space="preserve">
<g>
	<g>
		<path d="M510.819,137.205c-0.005-0.06-0.015-0.117-0.02-0.178c-0.005-0.049-0.003-0.097-0.008-0.147
			c-3.62-36.193-12.124-68.096-25.994-97.533c-2.489-5.282-6.739-9.534-12.023-12.021c-31.219-14.708-63.521-22.671-97.588-25.999
			c-0.045-0.005-0.09-0.003-0.137-0.007c-0.044-0.003-0.085-0.012-0.131-0.015C166.034-16.881-17.913,175.045,1.395,375.027
			c0.005,0.049,0.003,0.097,0.008,0.147c3.572,35.689,10.036,63.66,25.994,97.531c2.488,5.282,6.738,9.534,12.023,12.023
			c39.047,18.397,81.926,27.164,124.354,27.164C361.809,511.89,527.667,330.882,510.819,137.205z M120.538,457.861
			c-18.444-3.171-35.246-8.046-51.429-14.898c-7.917-18.424-12.224-34.566-14.961-51.37
			C91.929,388.492,123.577,420.122,120.538,457.861z M356.783,261.95c-9.815,9.813-25.723,9.812-35.536,0l-17.767-17.767
			l-11.845,11.845l17.767,17.767c9.813,9.813,9.813,25.725,0,35.536c-9.813,9.815-25.723,9.813-35.536,0l-17.767-17.767
			l-11.845,11.845l17.767,17.767c9.813,9.812,9.813,25.723,0,35.536c-9.813,9.815-25.723,9.813-35.536,0l-17.767-17.767
			l-16.585,16.585c-9.813,9.813-25.723,9.813-35.536,0c-9.813-9.812-9.813-25.723,0-35.536l16.585-16.585l-17.769-17.769
			c-9.813-9.812-9.813-25.723,0-35.536c9.812-9.812,25.723-9.812,35.536,0l17.769,17.769l11.845-11.845l-17.769-17.769
			c-9.813-9.812-9.813-25.723,0-35.536c9.812-9.813,25.723-9.813,35.536,0l17.769,17.769l11.845-11.845l-17.769-17.769
			c-9.813-9.812-9.813-25.723,0-35.536c9.812-9.812,25.723-9.812,35.536,0l17.769,17.769l16.585-16.585
			c9.812-9.812,25.723-9.812,35.536,0c9.813,9.812,9.813,25.723,0,35.536l-16.585,16.585l17.767,17.767
			C366.597,236.227,366.597,252.138,356.783,261.95z M391.653,54.22c18.359,3.19,35.352,8.108,51.385,14.862
			c6.708,15.943,11.616,32.94,14.832,51.39C419.924,123.487,388.654,91.715,391.653,54.22z"/>
	</g>
</g>
<g>
</g>
<g>
</g>
<g>
</g>
<g>
</g>
<g>
</g>
<g>
</g>
<g>
</g>
<g>
</g>
<g>
</g>
<g>
</g>
<g>
</g>
<g>
</g>
<g>
</g>
<g>
</g>
<g>
</g>
</svg>
